<!-- Q 版小貓 SVG -->
<svg xmlns="http://www.w3.org/2000/svg" viewBox="0 0 200 200" width="200" height="200">
  <!-- 左耳 -->
  <polygon points="50,60 60,20 85,55" fill="#F5DEB3" stroke="#D2B48C" stroke-width="2"/>
  <polygon points="60,40 65,30 75,50" fill="#FFE4E1"/>

  <!-- 右耳 -->
  <polygon points="150,60 140,20 115,55" fill="#F5DEB3" stroke="#D2B48C" stroke-width="2"/>
  <polygon points="140,40 135,30 125,50" fill="#FFE4E1"/>

  <!-- 臉 -->
  <circle cx="100" cy="100" r="50" fill="#F5DEB3" stroke="#D2B48C" stroke-width="2"/>

  <!-- 左眼 -->
  <ellipse cx="80" cy="90" rx="8" ry="12" fill="#2C1810"/>
  <ellipse cx="82" cy="88" rx="3" ry="4" fill="white"/>

  <!-- 右眼 -->
  <ellipse cx="120" cy="90" rx="8" ry="12" fill="#2C1810"/>
  <ellipse cx="122" cy="88" rx="3" ry="4" fill="white"/>

  <!-- 鼻子 -->
  <polygon points="100,100 95,105 100,107 105,105" fill="#FF69B4"/>

  <!-- 嘴巴 -->
  <path d="M 100 107 Q 85 115 80 110" stroke="#2C1810" stroke-width="2" fill="none" stroke-linecap="round"/>
  <path d="M 100 107 Q 115 115 120 110" stroke="#2C1810" stroke-width="2" fill="none" stroke-linecap="round"/>

  <!-- 鬍鬚左 -->
  <line x1="50" y1="95" x2="20" y2="90" stroke="#2C1810" stroke-width="1.5"/>
  <line x1="50" y1="100" x2="15" y2="100" stroke="#2C1810" stroke-width="1.5"/>
  <line x1="50" y1="105" x2="20" y2="110" stroke="#2C1810" stroke-width="1.5"/>

  <!-- 鬍鬚右 -->
  <line x1="150" y1="95" x2="180" y2="90" stroke="#2C1810" stroke-width="1.5"/>
  <line x1="150" y1="100" x2="185" y2="100" stroke="#2C1810" stroke-width="1.5"/>
  <line x1="150" y1="105" x2="180" y2="110" stroke="#2C1810" stroke-width="1.5"/>

  <!-- 腮紅 -->
  <circle cx="65" cy="105" r="8" fill="#FFB6C1" opacity="0.4"/>
  <circle cx="135" cy="105" r="8" fill="#FFB6C1" opacity="0.4"/>

  <!-- 身體 -->
  <ellipse cx="100" cy="170" rx="40" ry="35" fill="#F5DEB3" stroke="#D2B48C" stroke-width="2"/>

  <!-- 前腳 -->
  <ellipse cx="80" cy="190" rx="12" ry="18" fill="#F5DEB3" stroke="#D2B48C" stroke-width="2"/>
  <ellipse cx="120" cy="190" rx="12" ry="18" fill="#F5DEB3" stroke="#D2B48C" stroke-width="2"/>

  <!-- 肚肚 -->
  <ellipse cx="100" cy="170" rx="25" ry="20" fill="#FFE4E1" opacity="0.6"/>
</svg>
